<svg viewBox="0 0 32 32" focusable="false" stroke="none" stroke-width="0"
     aria-labelledby="label-936f81ea-0911-44bb-90ed-ed134a448741" aria-hidden="true" class="sc-gKsewC cBEsBx">
    <title id="label-936f81ea-0911-44bb-90ed-ed134a448741">Icon</title>
    <path d="m29.325491,29.302688l-15.995722,0l0,-15.983284l15.995722,0l0,15.983284zm-21.327629,-5.327761l0,-15.983284l15.995722,0l0,2.663881l-10.663815,0c-0.367902,0 -0.718475,0.074589 -1.037056,0.209115c-0.319914,0.134526 -0.606504,0.330321 -0.847773,0.571402s-0.437216,0.527448 -0.571847,0.847114c-0.134631,0.318334 -0.209277,0.668634 -0.209277,1.03625l0,10.655523l-2.665954,0zm-5.331907,-5.327761l0,-15.983284l15.995722,0l0,2.663881l-10.663815,0c-0.367902,0 -0.718475,0.074589 -1.037056,0.209115c-0.319914,0.134526 -0.606504,0.330321 -0.847773,0.571402s-0.437216,0.527448 -0.571847,0.847114c-0.134631,0.318334 -0.209277,0.668634 -0.209277,1.03625l0,10.655523l-2.665954,0zm29.116213,-6.364011c-0.134631,-0.319666 -0.330578,-0.606033 -0.571847,-0.847114s-0.527859,-0.436876 -0.847773,-0.571402c-0.318581,-0.134526 -0.669154,-0.209115 -1.037056,-0.209115l-2.665954,0l0,-2.663881c0,-0.367616 -0.074647,-0.717916 -0.209277,-1.03625c-0.134631,-0.319666 -0.330578,-0.606033 -0.571847,-0.847114s-0.527859,-0.436876 -0.847773,-0.571402c-0.318581,-0.134526 -0.669154,-0.209115 -1.037056,-0.209115l-2.665954,0l0,-2.663881c0,-0.367616 -0.074647,-0.717916 -0.209277,-1.03625c-0.134631,-0.319666 -0.330578,-0.606033 -0.571847,-0.847114s-0.527859,-0.436876 -0.847773,-0.571402c-0.318581,-0.134526 -0.669154,-0.209115 -1.037056,-0.209115l-15.995722,0c-0.367902,0 -0.718475,0.074589 -1.037056,0.209115c-0.319914,0.134526 -0.606504,0.330321 -0.847773,0.571402s-0.437216,0.527448 -0.571847,0.847114c-0.134631,0.318334 -0.209277,0.668634 -0.209277,1.03625l0,15.983284c0,1.470462 1.194347,2.663881 2.665954,2.663881l2.665954,0l0,2.663881c0,1.470462 1.194347,2.663881 2.665954,2.663881l2.665954,0l0,2.663881c0,1.470462 1.194347,2.663881 2.665954,2.663881l15.995722,0c1.471606,0 2.665954,-1.193419 2.665954,-2.663881l0,-15.983284c0,-0.367616 -0.074647,-0.717916 -0.209277,-1.03625z"
          style="fill: rgb(110, 110, 110);"></path>
</svg>