<svg viewBox="0 0 32 32" focusable="false" stroke="none" stroke-width="0"
aria-labelledby="label-4626dd0d-06c1-451b-901d-90cd64c66f78" aria-hidden="true" class="sc-jSgupP kWFXVA">
<title id="label-4626dd0d-06c1-451b-901d-90cd64c66f78">Icon</title>
<path d="M16,14 C17.6568542,14 19,12.6568542 19,11 C19,9.34314575 17.6568542,8 16,8 C14.3431458,8 13,9.34314575 13,11 C13,12.6568542 14.3431458,14 16,14 Z M16,16 C13.2385763,16 11,13.7614237 11,11 C11,8.23857625 13.2385763,6 16,6 C18.7614237,6 21,8.23857625 21,11 C21,13.7614237 18.7614237,16 16,16 Z M16,19 C13.0269583,19 10.5610282,20.4075601 9.52516483,22.3125 L22.4748352,22.3125 C21.4389718,20.4075601 18.9730417,19 16,19 Z M25,24.3125 L7,24.3125 C7,20.2739178 11.0294373,17 16,17 C20.9705627,17 25,20.2739178 25,24.3125 Z"
style="fill: rgb(51, 51, 51);"></path>
</svg>